<svg height="512" viewBox="0 0 512 512" width="512" xmlns="http://www.w3.org/2000/svg"><g><path d="m360 8h-336a8 8 0 0 0 -8 8v480a8 8 0 0 0 8 8h336a8 8 0 0 0 8-8v-480a8 8 0 0 0 -8-8zm-8 480h-320v-464h320z"/><path d="m120 136a8 8 0 0 0 8 8h200a8 8 0 0 0 0-16h-200a8 8 0 0 0 -8 8z"/><path d="m128 168h80a8 8 0 0 0 0-16h-80a8 8 0 0 0 0 16z"/><path d="m240 168a8 8 0 0 0 0-16h-8a8 8 0 0 0 0 16z"/><path d="m56 168h40a8 8 0 0 0 8-8v-24a8 8 0 0 0 -8-8h-40a8 8 0 0 0 -8 8v24a8 8 0 0 0 8 8zm8-24h24v8h-24z"/><path d="m328 184h-200a8 8 0 0 0 0 16h200a8 8 0 0 0 0-16z"/><path d="m128 224h80a8 8 0 0 0 0-16h-80a8 8 0 0 0 0 16z"/><path d="m240 224a8 8 0 0 0 0-16h-8a8 8 0 0 0 0 16z"/><path d="m56 224h40a8 8 0 0 0 8-8v-24a8 8 0 0 0 -8-8h-40a8 8 0 0 0 -8 8v24a8 8 0 0 0 8 8zm8-24h24v8h-24z"/><path d="m328 240h-200a8 8 0 0 0 0 16h200a8 8 0 0 0 0-16z"/><path d="m128 280h80a8 8 0 0 0 0-16h-80a8 8 0 0 0 0 16z"/><path d="m240 280a8 8 0 0 0 0-16h-8a8 8 0 0 0 0 16z"/><path d="m56 280h40a8 8 0 0 0 8-8v-24a8 8 0 0 0 -8-8h-40a8 8 0 0 0 -8 8v24a8 8 0 0 0 8 8zm8-24h24v8h-24z"/><path d="m328 296h-200a8 8 0 0 0 0 16h200a8 8 0 0 0 0-16z"/><path d="m128 336h80a8 8 0 0 0 0-16h-80a8 8 0 0 0 0 16z"/><path d="m240 336a8 8 0 0 0 0-16h-8a8 8 0 0 0 0 16z"/><path d="m56 336h40a8 8 0 0 0 8-8v-24a8 8 0 0 0 -8-8h-40a8 8 0 0 0 -8 8v24a8 8 0 0 0 8 8zm8-24h24v8h-24z"/><path d="m328 352h-200a8 8 0 0 0 0 16h200a8 8 0 0 0 0-16z"/><path d="m128 392h80a8 8 0 0 0 0-16h-80a8 8 0 0 0 0 16z"/><path d="m240 392a8 8 0 0 0 0-16h-8a8 8 0 0 0 0 16z"/><path d="m56 392h40a8 8 0 0 0 8-8v-24a8 8 0 0 0 -8-8h-40a8 8 0 0 0 -8 8v24a8 8 0 0 0 8 8zm8-24h24v8h-24z"/><path d="m328 408h-200a8 8 0 0 0 0 16h200a8 8 0 0 0 0-16z"/><path d="m208 432h-80a8 8 0 0 0 0 16h80a8 8 0 0 0 0-16z"/><path d="m240 432h-8a8 8 0 0 0 0 16h8a8 8 0 0 0 0-16z"/><path d="m56 448h40a8 8 0 0 0 8-8v-24a8 8 0 0 0 -8-8h-40a8 8 0 0 0 -8 8v24a8 8 0 0 0 8 8zm8-24h24v8h-24z"/><path d="m192 104a32 32 0 1 0 -32-32 32.036 32.036 0 0 0 32 32zm0-48a16 16 0 1 1 -16 16 16.019 16.019 0 0 1 16-16z"/><path d="m240 80h48a8 8 0 0 0 0-16h-48a8 8 0 0 0 0 16z"/><path d="m96 80h48a8 8 0 0 0 0-16h-48a8 8 0 0 0 0 16z"/><path d="m488 56h-24a8 8 0 0 0 -8 8v40h-8v-40a8 8 0 0 0 -8-8v-40a8 8 0 0 0 -8-8h-32a8 8 0 0 0 -8 8v40a8 8 0 0 0 -8 8v248a8 8 0 0 0 -8 8v112a8 8 0 0 0 8 8h2.46l22.05 58.81a8 8 0 0 0 14.98 0l22.05-58.81h2.46a8 8 0 0 0 8-8v-112a8 8 0 0 0 -8-8v-192h8v56a8 8 0 0 0 8 8h24a8 8 0 0 0 8-8v-112a8 8 0 0 0 -8-8zm-80-32h16v32h-16zm-8 48h32v240h-32zm16 401.22-12.46-33.22h24.92zm24-49.22h-48v-96h48zm40-256h-8v-96h8z"/></g></svg>