<svg id="Capa_1" enable-background="new 0 0 508.945 508.945" height="512" viewBox="0 0 508.945 508.945" width="512" xmlns="http://www.w3.org/2000/svg"><g><path d="m493.874 193.945h-60v-63.279l-60-130.666-60 130.666v63.279h-44.706l-129.321-193.802-124.776 83.25 73.763 110.553h-44.96v120h60v195h330c0-19.906 0-171.788 0-195h60zm-98.394-75h-43.213l21.607-47.054zm-51.606 30h60v45h-60zm-287.197-57.248 74.865-49.949 16.651 24.954-24.955 16.651 16.65 24.955 24.956-16.652 16.652 24.955-37.435 24.978 16.65 24.956 37.436-24.979 34.953 52.379h-108.202zm347.197 327.248h-120v-45h120zm0-75h-150v105h150v30h-270v-165h270zm60-60c-23.079 0-367.018 0-390 0v-60h390z"/></g></svg>